<svg width="77" height="37" viewBox="0 0 77 37" fill="none" xmlns="http://www.w3.org/2000/svg">
<path d="M17.2266 0.390625C18.1953 0.390625 19.1797 0.492187 20.1797 0.695312C21.1797 0.882812 22.0703 1.14062 22.8516 1.46875C24.2266 3.875 25.4766 6.32812 26.6016 8.82812C27.7422 11.3125 28.7578 13.875 29.6484 16.5156C30.2578 16.5938 30.875 16.6797 31.5 16.7734C32.125 16.8516 32.7578 16.9375 33.3984 17.0312V23.0312L31.3828 22.4688C31.9453 24.7969 32.4219 27.1719 32.8125 29.5938C33.2031 32.0156 33.4922 34.4844 33.6797 37H28.1016C27.8672 34.3125 27.4766 31.6562 26.9297 29.0312C26.3828 26.4062 25.7578 23.8906 25.0547 21.4844C23.5391 21.3594 22.0938 21.2656 20.7188 21.2031C19.3594 21.1406 18.1953 21.1094 17.2266 21.1094C15.9297 21.1094 14.6406 21.1328 13.3594 21.1797C12.0781 21.2266 10.7891 21.3125 9.49219 21.4375C8.78906 23.8438 8.15625 26.3594 7.59375 28.9844C7.04688 31.6094 6.66406 34.2812 6.44531 37H0.867188C1.03906 34.4844 1.3125 32.0234 1.6875 29.6172C2.07812 27.2109 2.55469 24.8438 3.11719 22.5156L1.28906 23.0312V17.0312L4.89844 16.5156C5.77344 13.875 6.77344 11.3125 7.89844 8.82812C9.03906 6.32812 10.3047 3.875 11.6953 1.46875C12.4766 1.14062 13.3594 0.882812 14.3438 0.695312C15.3281 0.492187 16.2891 0.390625 17.2266 0.390625ZM17.2266 15.8125C18.1641 15.8125 19.1328 15.8281 20.1328 15.8594C21.1328 15.875 22.1641 15.9219 23.2266 16C22.4297 13.8281 21.6406 11.9453 20.8594 10.3516C20.0938 8.74219 19.4297 7.5 18.8672 6.625C18.5859 6.5 18.3203 6.41406 18.0703 6.36719C17.8203 6.32031 17.5391 6.29688 17.2266 6.29688C16.7266 6.29688 16.2109 6.40625 15.6797 6.625C15.1172 7.5 14.4453 8.74219 13.6641 10.3516C12.8828 11.9453 12.1016 13.8281 11.3203 16C12.3516 15.9219 13.3594 15.875 14.3438 15.8594C15.3438 15.8281 16.3047 15.8125 17.2266 15.8125ZM50.8828 16.4219H66.6328V1.70312C67.9766 1.75 69.2422 1.82812 70.4297 1.9375C71.6172 2.04688 72.6719 2.16406 73.5938 2.28906C74.6562 2.42969 75.6484 2.57812 76.5703 2.73438V8.73438C75.9609 8.54688 75.2891 8.375 74.5547 8.21875C73.8203 8.04688 73.0547 7.89062 72.2578 7.75V30.9531C73.9766 30.6719 75.4141 30.3438 76.5703 29.9688V35.9219C75.4453 36.1094 74.4141 36.2656 73.4766 36.3906C72.5391 36.5156 71.6719 36.6172 70.875 36.6953C70.0781 36.7734 69.3281 36.8359 68.625 36.8828C67.9375 36.9297 67.2734 36.9688 66.6328 37V22.0938H50.8828V37C50.2422 36.9688 49.5703 36.9297 48.8672 36.8828C48.1797 36.8359 47.4375 36.7734 46.6406 36.6953C45.8438 36.6172 44.9766 36.5156 44.0391 36.3906C43.1016 36.2656 42.0703 36.1094 40.9453 35.9219V29.9688C41.5547 30.1562 42.2109 30.3359 42.9141 30.5078C43.6328 30.6641 44.4141 30.8125 45.2578 30.9531V7.75C43.6328 8.03125 42.1953 8.35938 40.9453 8.73438V2.73438C41.8359 2.57812 42.8203 2.42969 43.8984 2.28906C44.8047 2.16406 45.8594 2.04688 47.0625 1.9375C48.2656 1.82812 49.5391 1.75 50.8828 1.70312V16.4219Z" fill="url(#paint0_diamond)"/>
<defs>
<radialGradient id="paint0_diamond" cx="0" cy="0" r="1" gradientUnits="userSpaceOnUse" gradientTransform="translate(-6 37) rotate(-29.0546) scale(102.956 154.434)">
<stop stop-color="#45CAFC"/>
<stop offset="1" stop-color="#303F9F"/>
</radialGradient>
</defs>
</svg>
